# xmcd
#
# Track frame offsets: 
#        150
#        20995
#        49016
#        76191
#        96766
#        122657
#        144876
#        172870
#        195995
#
# Disc length: 2967 seconds
#
# Revision: 0
# Processed by: cddbd v1.5.2PL0 Copyright (c) Steve Scherf et al.
# Submitted via: ExactAudioCopy v1.0b3
#
DISCID=670b9509
DTITLE=Storm Warning - Strategy
DYEAR=1900
DGENRE=Blues
TTITLE0=Lonely Guy
TTITLE1=Parallel Lives
TTITLE2=What Have You Done (To Me)?
TTITLE3=Misspent Youth
TTITLE4=Chocolates and Roses
TTITLE5=Cold Hearted Woman
TTITLE6=Gonna Miss You
TTITLE7=The Chester Stroll
TTITLE8=Break Free
EXTD=
EXTT0=
EXTT1=
EXTT2=
EXTT3=
EXTT4=
EXTT5=
EXTT6=
EXTT7=
EXTT8=
PLAYORDER=
